HIERARCHY
ROOT root
{
	OFFSET	0	13.1	24.9
	CHANNELS 6  Xposition Yposition Zposition Xrotation Yrotation Zrotation
	JOINT spine_1
	{
		OFFSET	0	9.99999	0
		CHANNELS 3  Xrotation Yrotation Zrotation
		JOINT spine_2
		{
			OFFSET	0	112	-10
			CHANNELS 3  Xrotation Yrotation Zrotation
			JOINT spine_3
			{
				OFFSET	0	206.5	19.3
				CHANNELS 3  Xrotation Yrotation Zrotation
				JOINT spine_4
				{
					OFFSET	0	110.4	14.6
					CHANNELS 3  Xrotation Yrotation Zrotation
					JOINT neck_1
					{
						OFFSET	0	71.8	-50.3
						CHANNELS 3  Xrotation Yrotation Zrotation
						JOINT neck_2
						{
							OFFSET	0	86.2	-25.8
							CHANNELS 3  Xrotation Yrotation Zrotation
							JOINT head_ee
							{
								OFFSET	0	179.8	-8.7
								CHANNELS 3  Xrotation Yrotation Zrotation
								End Site
								{
									OFFSET	1	0	0
								}
							}
						}
					}
					JOINT left_clavicle
					{
						OFFSET	-43.2	22.4	-70.8
						CHANNELS 3  Xrotation Yrotation Zrotation
						JOINT left_shoulder
						{
							OFFSET	-93.9	-5.79999	48.7
							CHANNELS 3  Xrotation Yrotation Zrotation
							JOINT left_elbow
							{
								OFFSET	-291.4	-30.8	15.2
								CHANNELS 3  Xrotation Yrotation Zrotation
								JOINT left_lowarm_twist
								{
									OFFSET	-110.7	-3.89999	13.6
									CHANNELS 3  Xrotation Yrotation Zrotation
									JOINT left_hand
									{
										OFFSET	-110.7	-3.89999	13.6
										CHANNELS 3  Xrotation Yrotation Zrotation
										JOINT left_ee
										{
											OFFSET	-80.8	-5.10001	12.1
											CHANNELS 3  Xrotation Yrotation Zrotation
											End Site
											{
												OFFSET	1	0	0
											}
										}
									}
								}
							}
						}
					}
					JOINT right_clavicle
					{
						OFFSET	43.2	22.4	-70.8
						CHANNELS 3  Xrotation Yrotation Zrotation
						JOINT right_shoulder
						{
							OFFSET	93.9	-5.79999	48.7
							CHANNELS 3  Xrotation Yrotation Zrotation
							JOINT right_elbow
							{
								OFFSET	291.4	-30.8	15.2
								CHANNELS 3  Xrotation Yrotation Zrotation
								JOINT right_lowarm_twist
								{
									OFFSET	110.7	-3.89999	13.6
									CHANNELS 3  Xrotation Yrotation Zrotation
									JOINT right_hand
									{
										OFFSET	110.7	-3.89999	13.6
										CHANNELS 3  Xrotation Yrotation Zrotation
										JOINT right_ee
										{
											OFFSET	80.8	-5.10001	12.1
											CHANNELS 3  Xrotation Yrotation Zrotation
											End Site
											{
												OFFSET	1	0	0
											}
										}
									}
								}
							}
						}
					}
				}
			}
		}
	}
	JOINT left_hip
	{
		OFFSET	-82.8	-127.5	0.300001
		CHANNELS 3  Xrotation Yrotation Zrotation
		JOINT left_knee
		{
			OFFSET	-28.2	-396.7	2.2
			CHANNELS 3  Xrotation Yrotation Zrotation
			JOINT left_ankle
			{
				OFFSET	-11.7	-411.3	35.4
				CHANNELS 3  Xrotation Yrotation Zrotation
				JOINT left_toes
				{
					OFFSET	0	-60	-88.6
					CHANNELS 3  Xrotation Yrotation Zrotation
					JOINT left_foot_ee
					{
						OFFSET	-22.5	-16.5	-42.2
						CHANNELS 3  Xrotation Yrotation Zrotation
						End Site
						{
							OFFSET	1	0	0
						}
					}
				}
			}
		}
	}
	JOINT right_hip
	{
		OFFSET	82.8	-127.5	0.300001
		CHANNELS 3  Xrotation Yrotation Zrotation
		JOINT right_knee
		{
			OFFSET	28.2	-396.7	2.2
			CHANNELS 3  Xrotation Yrotation Zrotation
			JOINT right_ankle
			{
				OFFSET	11.7	-411.3	35.4
				CHANNELS 3  Xrotation Yrotation Zrotation
				JOINT right_toes
				{
					OFFSET	0	-60	-88.6
					CHANNELS 3  Xrotation Yrotation Zrotation
					JOINT right_foot_ee
					{
						OFFSET	22.5	-16.5	-42.2
						CHANNELS 3  Xrotation Yrotation Zrotation
						End Site
						{
							OFFSET	1	0	0
						}
					}
				}
			}
		}
	}
}
MOTION
Frames: 13
Frame Time: 0.02
3574.42 741.953 -1474.73 17.5607120375 83.9436857147 -13.6152877764 -2.9652 -0.11318 0.439129 -2.96511 -0.140893 0.431037 -2.96612 -0.248312 0.379454 -2.96627 -0.185269 0.413908 -4.60797 18.3214 -0.858998 -4.26357 34.3407 2.16404 -0.0 0.0 -0.0 4.17586 11.0443 8.42323 -16.8601 -12.472 56.5882 3.28112 -58.385 1.83354 -56.9373 -4.9045 4.99567 -0.923976 17.3866 1.43906 -0.0 0.0 -0.0 8.15801 25.8784 -14.786 -23.6969 35.3041 -57.9951 0.685897 18.7664 -0.113344 -2.50947 0.095151 -0.306288 -2.85791 1.63765 20.2792 0.0 0.0 0.0 8.12595 15.0358 -14.5339 -17.8966 0.314745 2.7172 4.57932 -11.3728 -0.702754 -1.76992 0.0 0.0 -0.0 0.0 -0.0 8.78049 21.8021 -10.0156 -12.5869 -0.3103 -1.90285 18.8329 -21.2231 2.66387 -8.1195 0.0 0.0 0.0 0.0 0.0 
3574.42 741.953 -1474.73 15.930926797 83.3400892566 -11.9754400419 -2.9652 -0.11318 0.439129 -2.96511 -0.140893 0.431037 -2.96612 -0.248312 0.379454 -2.96627 -0.185269 0.413908 -4.60797 18.3214 -0.858998 -4.26357 34.3407 2.16404 -0.0 0.0 -0.0 4.17586 11.0443 8.42323 -16.8601 -12.472 56.5882 3.28112 -58.385 1.83354 -56.9373 -4.9045 4.99567 -0.923976 17.3866 1.43906 -0.0 0.0 -0.0 8.15801 25.8784 -14.786 -23.6969 35.3041 -57.9951 0.685897 18.7664 -0.113344 -2.50947 0.095151 -0.306288 -2.85791 1.63765 20.2792 0.0 0.0 0.0 8.12595 15.0358 -14.5339 -17.8966 0.314745 2.7172 4.57932 -11.3728 -0.702754 -1.76992 0.0 0.0 -0.0 0.0 -0.0 8.78049 21.8021 -10.0156 -12.5869 -0.3103 -1.90285 18.8329 -21.2231 2.66387 -8.1195 0.0 0.0 0.0 0.0 0.0 
3574.42 741.953 -1474.73 14.3915329926 82.6415819742 -10.4244854001 -2.9652 -0.11318 0.439129 -2.96511 -0.140893 0.431037 -2.96612 -0.248312 0.379454 -2.96627 -0.185269 0.413908 -4.60797 18.3214 -0.858998 -4.26357 34.3407 2.16404 -0.0 0.0 -0.0 4.17586 11.0443 8.42323 -16.8601 -12.472 56.5882 3.28112 -58.385 1.83354 -56.9373 -4.9045 4.99567 -0.923976 17.3866 1.43906 -0.0 0.0 -0.0 8.15801 25.8784 -14.786 -23.6969 35.3041 -57.9951 0.685897 18.7664 -0.113344 -2.50947 0.095151 -0.306288 -2.85791 1.63765 20.2792 0.0 0.0 0.0 8.12595 15.0358 -14.5339 -17.8966 0.314745 2.7172 4.57932 -11.3728 -0.702754 -1.76992 0.0 0.0 -0.0 0.0 -0.0 8.78049 21.8021 -10.0156 -12.5869 -0.3103 -1.90285 18.8329 -21.2231 2.66387 -8.1195 0.0 0.0 0.0 0.0 0.0 
3574.42 741.953 -1474.73 12.468025774 81.5210466269 -8.48255652485 -2.9652 -0.11318 0.439129 -2.96511 -0.140893 0.431037 -2.96612 -0.248312 0.379454 -2.96627 -0.185269 0.413908 -4.60797 18.3214 -0.858998 -4.26357 34.3407 2.16404 -0.0 0.0 -0.0 4.17586 11.0443 8.42323 -16.8601 -12.472 56.5882 3.28112 -58.385 1.83354 -56.9373 -4.9045 4.99567 -0.923976 17.3866 1.43906 -0.0 0.0 -0.0 8.15801 25.8784 -14.786 -23.6969 35.3041 -57.9951 0.685897 18.7664 -0.113344 -2.50947 0.095151 -0.306288 -2.85791 1.63765 20.2792 0.0 0.0 0.0 8.12595 15.0358 -14.5339 -17.8966 0.314745 2.7172 4.57932 -11.3728 -0.702754 -1.76992 0.0 0.0 -0.0 0.0 -0.0 8.78049 21.8021 -10.0156 -12.5869 -0.3103 -1.90285 18.8329 -21.2231 2.66387 -8.1195 0.0 0.0 0.0 0.0 0.0 
3574.42 741.953 -1474.73 11.1983038202 80.5658863509 -7.1972073608 -2.9652 -0.11318 0.439129 -2.96511 -0.140893 0.431037 -2.96612 -0.248312 0.379454 -2.96627 -0.185269 0.413908 -4.60797 18.3214 -0.858998 -4.26357 34.3407 2.16404 -0.0 0.0 -0.0 4.17586 11.0443 8.42323 -16.8601 -12.472 56.5882 3.28112 -58.385 1.83354 -56.9373 -4.9045 4.99567 -0.923976 17.3866 1.43906 -0.0 0.0 -0.0 8.15801 25.8784 -14.786 -23.6969 35.3041 -57.9951 0.685897 18.7664 -0.113344 -2.50947 0.095151 -0.306288 -2.85791 1.63765 20.2792 0.0 0.0 0.0 8.12595 15.0358 -14.5339 -17.8966 0.314745 2.7172 4.57932 -11.3728 -0.702754 -1.76992 0.0 0.0 -0.0 0.0 -0.0 8.78049 21.8021 -10.0156 -12.5869 -0.3103 -1.90285 18.8329 -21.2231 2.66387 -8.1195 0.0 0.0 0.0 0.0 0.0 
3574.42 741.953 -1474.73 9.77931744997 79.1981401104 -5.75590941348 -2.9652 -0.11318 0.439129 -2.96511 -0.140893 0.431037 -2.96612 -0.248312 0.379454 -2.96627 -0.185269 0.413908 -4.60797 18.3214 -0.858998 -4.26357 34.3407 2.16404 -0.0 0.0 -0.0 4.17586 11.0443 8.42323 -16.8601 -12.472 56.5882 3.28112 -58.385 1.83354 -56.9373 -4.9045 4.99567 -0.923976 17.3866 1.43906 -0.0 0.0 -0.0 8.15801 25.8784 -14.786 -23.6969 35.3041 -57.9951 0.685897 18.7664 -0.113344 -2.50947 0.095151 -0.306288 -2.85791 1.63765 20.2792 0.0 0.0 0.0 8.12595 15.0358 -14.5339 -17.8966 0.314745 2.7172 4.57932 -11.3728 -0.702754 -1.76992 0.0 0.0 -0.0 0.0 -0.0 8.78049 21.8021 -10.0156 -12.5869 -0.3103 -1.90285 18.8329 -21.2231 2.66387 -8.1195 0.0 0.0 0.0 0.0 0.0 
3574.42 741.953 -1474.73 8.66025797759 77.7951024697 -4.61399764432 -2.9652 -0.11318 0.439129 -2.96511 -0.140893 0.431037 -2.96612 -0.248312 0.379454 -2.96627 -0.185269 0.413908 -4.60797 18.3214 -0.858998 -4.26357 34.3407 2.16404 -0.0 0.0 -0.0 4.17586 11.0443 8.42323 -16.8601 -12.472 56.5882 3.28112 -58.385 1.83354 -56.9373 -4.9045 4.99567 -0.923976 17.3866 1.43906 -0.0 0.0 -0.0 8.15801 25.8784 -14.786 -23.6969 35.3041 -57.9951 0.685897 18.7664 -0.113344 -2.50947 0.095151 -0.306288 -2.85791 1.63765 20.2792 0.0 0.0 0.0 8.12595 15.0358 -14.5339 -17.8966 0.314745 2.7172 4.57932 -11.3728 -0.702754 -1.76992 0.0 0.0 -0.0 0.0 -0.0 8.78049 21.8021 -10.0156 -12.5869 -0.3103 -1.90285 18.8329 -21.2231 2.66387 -8.1195 0.0 0.0 0.0 0.0 0.0 
3574.42 741.953 -1474.73 7.42749726369 75.74440544 -3.34783061321 -2.9652 -0.11318 0.439129 -2.96511 -0.140893 0.431037 -2.96612 -0.248312 0.379454 -2.96627 -0.185269 0.413908 -4.60797 18.3214 -0.858998 -4.26357 34.3407 2.16404 -0.0 0.0 -0.0 4.17586 11.0443 8.42323 -16.8601 -12.472 56.5882 3.28112 -58.385 1.83354 -56.9373 -4.9045 4.99567 -0.923976 17.3866 1.43906 -0.0 0.0 -0.0 8.15801 25.8784 -14.786 -23.6969 35.3041 -57.9951 0.685897 18.7664 -0.113344 -2.50947 0.095151 -0.306288 -2.85791 1.63765 20.2792 0.0 0.0 0.0 8.12595 15.0358 -14.5339 -17.8966 0.314745 2.7172 4.57932 -11.3728 -0.702754 -1.76992 0.0 0.0 -0.0 0.0 -0.0 8.78049 21.8021 -10.0156 -12.5869 -0.3103 -1.90285 18.8329 -21.2231 2.66387 -8.1195 0.0 0.0 0.0 0.0 0.0 
3574.42 741.953 -1474.73 6.39259311655 73.3870234195 -2.2744370627 -2.9652 -0.11318 0.439129 -2.96511 -0.140893 0.431037 -2.96612 -0.248312 0.379454 -2.96627 -0.185269 0.413908 -4.60797 18.3214 -0.858998 -4.26357 34.3407 2.16404 -0.0 0.0 -0.0 4.17586 11.0443 8.42323 -16.8601 -12.472 56.5882 3.28112 -58.385 1.83354 -56.9373 -4.9045 4.99567 -0.923976 17.3866 1.43906 -0.0 0.0 -0.0 8.15801 25.8784 -14.786 -23.6969 35.3041 -57.9951 0.685897 18.7664 -0.113344 -2.50947 0.095151 -0.306288 -2.85791 1.63765 20.2792 0.0 0.0 0.0 8.12595 15.0358 -14.5339 -17.8966 0.314745 2.7172 4.57932 -11.3728 -0.702754 -1.76992 0.0 0.0 -0.0 0.0 -0.0 8.78049 21.8021 -10.0156 -12.5869 -0.3103 -1.90285 18.8329 -21.2231 2.66387 -8.1195 0.0 0.0 0.0 0.0 0.0 
3574.42 741.953 -1474.73 5.44201364516 70.3876993931 -1.27464287643 -2.9652 -0.11318 0.439129 -2.96511 -0.140893 0.431037 -2.96612 -0.248312 0.379454 -2.96627 -0.185269 0.413908 -4.60797 18.3214 -0.858998 -4.26357 34.3407 2.16404 -0.0 0.0 -0.0 4.17586 11.0443 8.42323 -16.8601 -12.472 56.5882 3.28112 -58.385 1.83354 -56.9373 -4.9045 4.99567 -0.923976 17.3866 1.43906 -0.0 0.0 -0.0 8.15801 25.8784 -14.786 -23.6969 35.3041 -57.9951 0.685897 18.7664 -0.113344 -2.50947 0.095151 -0.306288 -2.85791 1.63765 20.2792 0.0 0.0 0.0 8.12595 15.0358 -14.5339 -17.8966 0.314745 2.7172 4.57932 -11.3728 -0.702754 -1.76992 0.0 0.0 -0.0 0.0 -0.0 8.78049 21.8021 -10.0156 -12.5869 -0.3103 -1.90285 18.8329 -21.2231 2.66387 -8.1195 0.0 0.0 0.0 0.0 0.0 
3574.42 741.953 -1474.73 4.42297679671 65.6206410392 -0.176564067079 -2.9652 -0.11318 0.439129 -2.96511 -0.140893 0.431037 -2.96612 -0.248312 0.379454 -2.96627 -0.185269 0.413908 -4.60797 18.3214 -0.858998 -4.26357 34.3407 2.16404 -0.0 0.0 -0.0 4.17586 11.0443 8.42323 -16.8601 -12.472 56.5882 3.28112 -58.385 1.83354 -56.9373 -4.9045 4.99567 -0.923976 17.3866 1.43906 -0.0 0.0 -0.0 8.15801 25.8784 -14.786 -23.6969 35.3041 -57.9951 0.685897 18.7664 -0.113344 -2.50947 0.095151 -0.306288 -2.85791 1.63765 20.2792 0.0 0.0 0.0 8.12595 15.0358 -14.5339 -17.8966 0.314745 2.7172 4.57932 -11.3728 -0.702754 -1.76992 0.0 0.0 -0.0 0.0 -0.0 8.78049 21.8021 -10.0156 -12.5869 -0.3103 -1.90285 18.8329 -21.2231 2.66387 -8.1195 0.0 0.0 0.0 0.0 0.0 
3574.42 741.953 -1474.73 3.77123269742 61.0542677731 0.55214859512 -2.9652 -0.11318 0.439129 -2.96511 -0.140893 0.431037 -2.96612 -0.248312 0.379454 -2.96627 -0.185269 0.413908 -4.60797 18.3214 -0.858998 -4.26357 34.3407 2.16404 -0.0 0.0 -0.0 4.17586 11.0443 8.42323 -16.8601 -12.472 56.5882 3.28112 -58.385 1.83354 -56.9373 -4.9045 4.99567 -0.923976 17.3866 1.43906 -0.0 0.0 -0.0 8.15801 25.8784 -14.786 -23.6969 35.3041 -57.9951 0.685897 18.7664 -0.113344 -2.50947 0.095151 -0.306288 -2.85791 1.63765 20.2792 0.0 0.0 0.0 8.12595 15.0358 -14.5339 -17.8966 0.314745 2.7172 4.57932 -11.3728 -0.702754 -1.76992 0.0 0.0 -0.0 0.0 -0.0 8.78049 21.8021 -10.0156 -12.5869 -0.3103 -1.90285 18.8329 -21.2231 2.66387 -8.1195 0.0 0.0 0.0 0.0 0.0 
3575.80532581 743.646 -1491.94878545 4.32308028796 58.1185421673 0.180087988745 -3.11247 -0.128104 0.436241 -3.11238 -0.155603 0.427205 -3.1135 -0.262472 0.371249 -3.11363 -0.200547 0.408042 -3.81678 18.3429 -2.24296 -3.29633 35.2814 0.468435 -0.0 0.0 -0.0 3.14131 11.3648 6.66432 -19.034 -11.6796 56.5555 3.47572 -59.8375 2.00055 -56.2009 -4.81441 4.96728 -0.888734 16.9165 1.4512 -0.0 0.0 -0.0 8.76926 26.8445 -16.0346 -22.3323 35.4183 -57.8899 0.692375 18.9311 -0.115437 -1.84779 0.0687595 -0.22593 -2.95473 0.816155 20.5653 0.0 0.0 0.0 8.14602 15.6741 -15.5129 -22.2427 0.262259 3.38184 12.1294 -7.00194 -1.76916 -1.86658 0.0 0.0 -0.0 0.0 -0.0 8.71736 20.8226 -11.1493 -11.9318 -0.304523 -1.8025 20.3339 -21.4607 2.86118 -7.86104 0.0 0.0 0.0 0.0 0.0 
